<svg width="353" height="330" viewBox="0 0 353 330" fill="none" xmlns="http://www.w3.org/2000/svg">
<path fill-rule="evenodd" clip-rule="evenodd" d="M99.4695 149.355C126.225 83.6535 201.676 53.5641 267.207 80.2505C332.591 106.877 365.111 181.108 338.416 246.661C311.879 311.827 236.784 341.035 171.787 314.566C106.64 288.037 72.8713 214.67 99.4695 149.355Z" fill="#4AD0AD"/>
<path fill-rule="evenodd" clip-rule="evenodd" d="M108.548 302.056C135.303 236.354 210.754 206.265 276.286 232.951C341.669 259.578 374.19 333.809 347.495 399.362C320.957 464.528 245.863 493.736 180.865 467.267C115.719 440.738 81.9496 367.371 108.548 302.056Z" fill="#3D8DBB"/>
<path fill-rule="evenodd" clip-rule="evenodd" d="M245.658 172.176C272.414 106.475 347.865 76.3855 413.396 103.072C478.779 129.698 511.3 203.929 484.605 269.482C458.068 334.648 382.973 363.857 317.976 337.388C252.829 310.858 219.06 237.491 245.658 172.176Z" fill="#1B639F"/>
</svg>
