<svg width="279" height="312" viewBox="0 0 279 312" fill="none" xmlns="http://www.w3.org/2000/svg">
<path fill-rule="evenodd" clip-rule="evenodd" d="M117.736 -90C188.676 -90 245 -31.4697 245 39.2872C245 109.884 188.516 168 117.736 168C47.3739 168 -8 109.468 -8 39.2872C-8 -31.054 47.2127 -90 117.736 -90Z" fill="#4AD0AD"/>
<path fill-rule="evenodd" clip-rule="evenodd" d="M-20.264 -24.0001C50.6761 -24.0001 107 34.5302 107 105.287C107 175.884 50.5157 234 -20.264 234C-90.6261 234 -146 175.467 -146 105.287C-146 34.946 -90.7873 -24.0001 -20.264 -24.0001Z" fill="#3D8DBB"/>
<path fill-rule="evenodd" clip-rule="evenodd" d="M151.736 53.9999C222.676 53.9999 279 112.53 279 183.287C279 253.884 222.516 312 151.736 312C81.3739 312 26 253.467 26 183.287C26 112.946 81.2127 53.9999 151.736 53.9999Z" fill="#1B639F"/>
</svg>
