<svg width="425" height="402" viewBox="0 0 425 402" fill="none" xmlns="http://www.w3.org/2000/svg">
<path fill-rule="evenodd" clip-rule="evenodd" d="M263.736 6.10352e-05C334.676 6.10352e-05 391 58.5304 391 129.287C391 199.884 334.516 258 263.736 258C193.374 258 138 199.468 138 129.287C138 58.9461 193.213 6.10352e-05 263.736 6.10352e-05Z" fill="#4AD0AD"/>
<path fill-rule="evenodd" clip-rule="evenodd" d="M125.736 66C196.676 66 253 124.53 253 195.287C253 265.884 196.516 324 125.736 324C55.3739 324 0 265.468 0 195.287C0 124.946 55.2127 66 125.736 66Z" fill="#3D8DBB"/>
<path fill-rule="evenodd" clip-rule="evenodd" d="M297.736 144C368.676 144 425 202.53 425 273.287C425 343.884 368.516 402 297.736 402C227.374 402 172 343.468 172 273.287C172 202.946 227.213 144 297.736 144Z" fill="#1B639F"/>
</svg>
